<svg xmlns="http://www.w3.org/2000/svg" width="57" height="56" viewBox="0 0 57 56" fill="none"><path d="M47.41 26.13C46.9687 21.6039 44.9187 17.3862 41.6324 14.243C38.346 11.0997 34.0412 9.23943 29.5 9H28.5H27.5C22.6063 9.2691 18.006 11.4188 14.66 15C14.0651 15.6256 13.517 16.2941 13.02 17C10.8245 20.0624 9.59831 23.7132 9.5 27.48C9.5 27.65 9.5 27.83 9.5 28C9.5 28.63 9.5 29.26 9.59 29.87C10.0313 34.3961 12.0813 38.6138 15.3676 41.757C18.654 44.9003 22.9588 46.7606 27.5 47H28.5H29.5C34.3937 46.7309 38.994 44.5812 42.34 41C42.9349 40.3744 43.483 39.7059 43.98 39C46.1755 35.9376 47.4017 32.2868 47.5 28.52C47.5 28.35 47.5 28.17 47.5 28C47.5 27.37 47.5 26.74 47.41 26.13ZM28.5 45C25.1377 45 21.8509 44.003 19.0553 42.135C16.2597 40.267 14.0807 37.612 12.794 34.5056C11.5074 31.3993 11.1707 27.9811 11.8267 24.6835C12.4826 21.3858 14.1017 18.3567 16.4792 15.9792C18.8567 13.6017 21.8858 11.9826 25.1835 11.3267C28.4811 10.6707 31.8993 11.0074 35.0056 12.294C38.112 13.5807 40.767 15.7597 42.635 18.5553C44.503 21.3509 45.5 24.6377 45.5 28C45.5 32.5087 43.7089 36.8327 40.5208 40.0208C37.3327 43.2089 33.0087 45 28.5 45Z" fill="#CBFB45"></path><path d="M47.41 26.13C46.9687 21.6039 44.9187 17.3862 41.6324 14.243C38.346 11.0997 34.0412 9.23943 29.5 9H28.5H27.5C22.6063 9.2691 18.006 11.4188 14.66 15C14.0651 15.6256 13.517 16.2941 13.02 17C10.8245 20.0624 9.59831 23.7132 9.5 27.48C9.5 27.65 9.5 27.83 9.5 28C9.5 28.63 9.5 29.26 9.59 29.87C10.0313 34.3961 12.0813 38.6138 15.3676 41.757C18.654 44.9003 22.9588 46.7606 27.5 47H28.5H29.5C34.3937 46.7309 38.994 44.5812 42.34 41C42.9349 40.3744 43.483 39.7059 43.98 39C46.1755 35.9376 47.4017 32.2868 47.5 28.52C47.5 28.35 47.5 28.17 47.5 28C47.5 27.37 47.5 26.74 47.41 26.13ZM28.5 45C25.1377 45 21.8509 44.003 19.0553 42.135C16.2597 40.267 14.0807 37.612 12.794 34.5056C11.5074 31.3993 11.1707 27.9811 11.8267 24.6835C12.4826 21.3858 14.1017 18.3567 16.4792 15.9792C18.8567 13.6017 21.8858 11.9826 25.1835 11.3267C28.4811 10.6707 31.8993 11.0074 35.0056 12.294C38.112 13.5807 40.767 15.7597 42.635 18.5553C44.503 21.3509 45.5 24.6377 45.5 28C45.5 32.5087 43.7089 36.8327 40.5208 40.0208C37.3327 43.2089 33.0087 45 28.5 45Z" fill="#CBFB45"></path><g opacity="0.5"><path opacity="0.5" d="M30.06 24H25.5V27H30.06C30.4411 26.9974 30.8059 26.8448 31.0753 26.5753C31.3448 26.3059 31.4974 25.9411 31.5 25.56V25.44C31.4974 25.0589 31.3448 24.6941 31.0753 24.4247C30.8059 24.1552 30.4411 24.0026 30.06 24ZM30.06 24H25.5V27H30.06C30.4411 26.9974 30.8059 26.8448 31.0753 26.5753C31.3448 26.3059 31.4974 25.9411 31.5 25.56V25.44C31.4974 25.0589 31.3448 24.6941 31.0753 24.4247C30.8059 24.1552 30.4411 24.0026 30.06 24ZM30.06 24H25.5V27H30.06C30.4411 26.9974 30.8059 26.8448 31.0753 26.5753C31.3448 26.3059 31.4974 25.9411 31.5 25.56V25.44C31.4974 25.0589 31.3448 24.6941 31.0753 24.4247C30.8059 24.1552 30.4411 24.0026 30.06 24ZM31 29H25.5V32H31C31.3978 32 31.7794 31.842 32.0607 31.5607C32.342 31.2794 32.5 30.8978 32.5 30.5C32.5 30.1022 32.342 29.7206 32.0607 29.4393C31.7794 29.158 31.3978 29 31 29ZM31 29H25.5V32H31C31.3978 32 31.7794 31.842 32.0607 31.5607C32.342 31.2794 32.5 30.8978 32.5 30.5C32.5 30.1022 32.342 29.7206 32.0607 29.4393C31.7794 29.158 31.3978 29 31 29ZM30.06 24H25.5V27H30.06C30.4411 26.9974 30.8059 26.8448 31.0753 26.5753C31.3448 26.3059 31.4974 25.9411 31.5 25.56V25.44C31.4974 25.0589 31.3448 24.6941 31.0753 24.4247C30.8059 24.1552 30.4411 24.0026 30.06 24ZM31.5 25.56V25.44C31.4974 25.0589 31.3448 24.6941 31.0753 24.4247C30.8059 24.1552 30.4411 24.0026 30.06 24H25.5V27H30.06C30.4411 26.9974 30.8059 26.8448 31.0753 26.5753C31.3448 26.3059 31.4974 25.9411 31.5 25.56ZM31 29H25.5V32H31C31.3978 32 31.7794 31.842 32.0607 31.5607C32.342 31.2794 32.5 30.8978 32.5 30.5C32.5 30.1022 32.342 29.7206 32.0607 29.4393C31.7794 29.158 31.3978 29 31 29ZM28.5 14C25.7311 14 23.0243 14.8211 20.722 16.3594C18.4197 17.8978 16.6253 20.0843 15.5657 22.6424C14.5061 25.2006 14.2288 28.0155 14.769 30.7313C15.3092 33.447 16.6426 35.9416 18.6005 37.8995C20.5584 39.8574 23.053 41.1908 25.7687 41.731C28.4845 42.2712 31.2994 41.9939 33.8576 40.9343C36.4157 39.8747 38.6022 38.0803 40.1406 35.778C41.6789 33.4757 42.5 30.7689 42.5 28C42.5 24.287 41.025 20.726 38.3995 18.1005C35.774 15.475 32.213 14 28.5 14ZM31 34H30.5V35C30.5 35.2652 30.3947 35.5196 30.2071 35.7071C30.0196 35.8946 29.7652 36 29.5 36C29.2348 36 28.9804 35.8946 28.7929 35.7071C28.6054 35.5196 28.5 35.2652 28.5 35V34H26.5V35C26.5 35.2652 26.3947 35.5196 26.2071 35.7071C26.0196 35.8946 25.7652 36 25.5 36C25.2348 36 24.9804 35.8946 24.7929 35.7071C24.6054 35.5196 24.5 35.2652 24.5 35V34H23.5C23.2348 34 22.9804 33.8946 22.7929 33.7071C22.6054 33.5196 22.5 33.2652 22.5 33C22.5 32.7348 22.6054 32.4804 22.7929 32.2929C22.9804 32.1054 23.2348 32 23.5 32V24C23.2348 24 22.9804 23.8946 22.7929 23.7071C22.6054 23.5196 22.5 23.2652 22.5 23C22.5 22.7348 22.6054 22.4804 22.7929 22.2929C22.9804 22.1054 23.2348 22 23.5 22H24.5V21C24.5 20.7348 24.6054 20.4804 24.7929 20.2929C24.9804 20.1054 25.2348 20 25.5 20C25.7652 20 26.0196 20.1054 26.2071 20.2929C26.3947 20.4804 26.5 20.7348 26.5 21V22H28.5V21C28.5 20.7348 28.6054 20.4804 28.7929 20.2929C28.9804 20.1054 29.2348 20 29.5 20C29.7652 20 30.0196 20.1054 30.2071 20.2929C30.3947 20.4804 30.5 20.7348 30.5 21V22C31.329 22.1069 32.0907 22.512 32.6428 23.1395C33.1949 23.7671 33.4996 24.5742 33.5 25.41V25.53C33.5065 26.248 33.2822 26.9492 32.86 27.53C33.3661 27.8418 33.783 28.2791 34.0703 28.7995C34.3576 29.3198 34.5057 29.9056 34.5 30.5C34.5 31.4283 34.1313 32.3185 33.4749 32.9749C32.8185 33.6313 31.9283 34 31 34ZM31.5 25.56V25.44C31.4974 25.0589 31.3448 24.6941 31.0753 24.4247C30.8059 24.1552 30.4411 24.0026 30.06 24H25.5V27H30.06C30.4411 26.9974 30.8059 26.8448 31.0753 26.5753C31.3448 26.3059 31.4974 25.9411 31.5 25.56ZM31 29H25.5V32H31C31.3978 32 31.7794 31.842 32.0607 31.5607C32.342 31.2794 32.5 30.8978 32.5 30.5C32.5 30.1022 32.342 29.7206 32.0607 29.4393C31.7794 29.158 31.3978 29 31 29ZM31 29H25.5V32H31C31.3978 32 31.7794 31.842 32.0607 31.5607C32.342 31.2794 32.5 30.8978 32.5 30.5C32.5 30.1022 32.342 29.7206 32.0607 29.4393C31.7794 29.158 31.3978 29 31 29ZM30.06 24H25.5V27H30.06C30.4411 26.9974 30.8059 26.8448 31.0753 26.5753C31.3448 26.3059 31.4974 25.9411 31.5 25.56V25.44C31.4974 25.0589 31.3448 24.6941 31.0753 24.4247C30.8059 24.1552 30.4411 24.0026 30.06 24ZM30.06 24H25.5V27H30.06C30.4411 26.9974 30.8059 26.8448 31.0753 26.5753C31.3448 26.3059 31.4974 25.9411 31.5 25.56V25.44C31.4974 25.0589 31.3448 24.6941 31.0753 24.4247C30.8059 24.1552 30.4411 24.0026 30.06 24ZM31 29H25.5V32H31C31.3978 32 31.7794 31.842 32.0607 31.5607C32.342 31.2794 32.5 30.8978 32.5 30.5C32.5 30.1022 32.342 29.7206 32.0607 29.4393C31.7794 29.158 31.3978 29 31 29ZM30.06 24H25.5V27H30.06C30.4411 26.9974 30.8059 26.8448 31.0753 26.5753C31.3448 26.3059 31.4974 25.9411 31.5 25.56V25.44C31.4974 25.0589 31.3448 24.6941 31.0753 24.4247C30.8059 24.1552 30.4411 24.0026 30.06 24ZM30.06 24H25.5V27H30.06C30.4411 26.9974 30.8059 26.8448 31.0753 26.5753C31.3448 26.3059 31.4974 25.9411 31.5 25.56V25.44C31.4974 25.0589 31.3448 24.6941 31.0753 24.4247C30.8059 24.1552 30.4411 24.0026 30.06 24Z" fill="#CBFB45"></path></g><g opacity="0.5"><path opacity="0.5" d="M28.5 11C28.2348 11 27.9804 10.8946 27.7929 10.7071C27.6054 10.5196 27.5 10.2652 27.5 10V3C27.5 2.73478 27.6054 2.48043 27.7929 2.29289C27.9804 2.10536 28.2348 2 28.5 2H37.5C37.7652 2 38.0196 2.10536 38.2071 2.29289C38.3946 2.48043 38.5 2.73478 38.5 3C38.5 3.26522 38.3946 3.51957 38.2071 3.70711C38.0196 3.89464 37.7652 4 37.5 4H29.5V10C29.5 10.2652 29.3946 10.5196 29.2071 10.7071C29.0196 10.8946 28.7652 11 28.5 11Z" fill="#CBFB45"></path></g><path d="M39.5 1.18283e-05C38.8811 0.00175134 38.2778 0.19489 37.7729 0.55295C37.2681 0.91101 36.8863 1.41646 36.68 2.00001C36.5589 2.3194 36.4978 2.65843 36.5 3.00001C36.4978 3.34159 36.5589 3.68063 36.68 4.00001C36.8634 4.51889 37.1861 4.9773 37.6126 5.32509C38.0392 5.67287 38.5532 5.89662 39.0984 5.97184C39.6435 6.04707 40.1989 5.97087 40.7037 5.7516C41.2085 5.53232 41.6432 5.17841 41.9603 4.72861C42.2775 4.2788 42.4647 3.75042 42.5017 3.20131C42.5386 2.6522 42.4238 2.10351 42.1697 1.61529C41.9157 1.12707 41.5323 0.718133 41.0614 0.433238C40.5905 0.148343 40.0503 -0.00153337 39.5 1.18283e-05ZM39.5 4.00001C39.3022 4.00001 39.1089 3.94136 38.9444 3.83148C38.78 3.7216 38.6518 3.56542 38.5761 3.3827C38.5004 3.19997 38.4806 2.9989 38.5192 2.80492C38.5578 2.61094 38.653 2.43276 38.7929 2.29291C38.9327 2.15305 39.1109 2.05781 39.3049 2.01923C39.4989 1.98064 39.7 2.00044 39.8827 2.07613C40.0654 2.15182 40.2216 2.27999 40.3315 2.44444C40.4413 2.60889 40.5 2.80223 40.5 3.00001C40.5 3.26523 40.3946 3.51958 40.2071 3.70712C40.0196 3.89466 39.7652 4.00001 39.5 4.00001Z" fill="#CBFB45"></path><g opacity="0.5"><path opacity="0.5" d="M28.5 54H19.5C19.2348 54 18.9804 53.8946 18.7929 53.7071C18.6054 53.5196 18.5 53.2652 18.5 53C18.5 52.7348 18.6054 52.4804 18.7929 52.2929C18.9804 52.1054 19.2348 52 19.5 52H27.5V46C27.5 45.7348 27.6054 45.4804 27.7929 45.2929C27.9804 45.1054 28.2348 45 28.5 45C28.7652 45 29.0196 45.1054 29.2071 45.2929C29.3946 45.4804 29.5 45.7348 29.5 46V53C29.5 53.2652 29.3946 53.5196 29.2071 53.7071C29.0196 53.8946 28.7652 54 28.5 54Z" fill="#CBFB45"></path></g><path d="M20.32 52C20.0841 51.3328 19.6199 50.7705 19.0095 50.4124C18.3991 50.0543 17.6818 49.9235 16.9843 50.0432C16.2868 50.1629 15.654 50.5253 15.1979 51.0663C14.7418 51.6074 14.4916 52.2923 14.4916 53C14.4916 53.7077 14.7418 54.3926 15.1979 54.9337C15.654 55.4747 16.2868 55.8371 16.9843 55.9568C17.6818 56.0765 18.3991 55.9457 19.0095 55.5876C19.6199 55.2296 20.0841 54.6672 20.32 54C20.5598 53.3549 20.5598 52.6451 20.32 52ZM17.5 54C17.3022 54 17.1089 53.9414 16.9444 53.8315C16.78 53.7216 16.6518 53.5654 16.5761 53.3827C16.5004 53.2 16.4806 52.9989 16.5192 52.8049C16.5578 52.6109 16.653 52.4328 16.7929 52.2929C16.9327 52.153 17.1109 52.0578 17.3049 52.0192C17.4989 51.9806 17.7 52.0004 17.8827 52.0761C18.0654 52.1518 18.2216 52.28 18.3315 52.4444C18.4414 52.6089 18.5 52.8022 18.5 53C18.5 53.2652 18.3946 53.5196 18.2071 53.7071C18.0196 53.8946 17.7652 54 17.5 54Z" fill="#CBFB45"></path><path d="M50.5 3C49.7044 3 48.9413 3.31607 48.3787 3.87868C47.8161 4.44129 47.5 5.20435 47.5 6C47.4958 6.44456 47.5987 6.88359 47.8 7.28C48.0884 7.90786 48.5921 8.41162 49.22 8.7C49.6164 8.90127 50.0554 9.00417 50.5 9C51.2956 9 52.0587 8.68393 52.6213 8.12132C53.1839 7.55871 53.5 6.79565 53.5 6C53.5 5.20435 53.1839 4.44129 52.6213 3.87868C52.0587 3.31607 51.2956 3 50.5 3ZM50.5 7C50.2569 6.99965 50.0223 6.91078 49.84 6.75L49.75 6.66C49.5892 6.4777 49.5003 6.24307 49.5 6C49.5 5.80222 49.5586 5.60888 49.6685 5.44443C49.7784 5.27998 49.9346 5.15181 50.1173 5.07612C50.3 5.00043 50.5011 4.98063 50.6951 5.01921C50.8891 5.0578 51.0673 5.15304 51.2071 5.29289C51.347 5.43275 51.4422 5.61093 51.4808 5.80491C51.5194 5.99889 51.4996 6.19996 51.4239 6.38268C51.3482 6.56541 51.22 6.72159 51.0556 6.83147C50.8911 6.94135 50.6978 7 50.5 7Z" fill="#CBFB45"></path><g opacity="0.5"><path opacity="0.5" d="M41.23 16.27C41.0964 16.2761 40.963 16.2553 40.8376 16.2089C40.7123 16.1625 40.5974 16.0915 40.5 16C40.4063 15.907 40.3319 15.7964 40.2811 15.6746C40.2303 15.5527 40.2042 15.422 40.2042 15.29C40.2042 15.158 40.2303 15.0273 40.2811 14.9054C40.3319 14.7835 40.4063 14.6729 40.5 14.58L48.38 6.69998C48.4732 6.60674 48.5839 6.53278 48.7057 6.48232C48.8276 6.43186 48.9581 6.40588 49.09 6.40588C49.2219 6.40588 49.3524 6.43186 49.4742 6.48232C49.5961 6.53278 49.7068 6.60674 49.8 6.69998C49.8932 6.79321 49.9672 6.9039 50.0177 7.02573C50.0681 7.14755 50.0941 7.27812 50.0941 7.40998C50.0941 7.54183 50.0681 7.6724 50.0177 7.79422C49.9672 7.91605 49.8932 8.02674 49.8 8.11998L41.94 16C41.748 16.1799 41.493 16.2769 41.23 16.27Z" fill="#CBFB45"></path></g><path d="M9.2 48.72C8.91163 48.0921 8.40786 47.5884 7.78 47.3C7.38359 47.0987 6.94456 46.9958 6.5 47C5.90666 47 5.32664 47.1759 4.83329 47.5056C4.33994 47.8352 3.95543 48.3038 3.72836 48.852C3.5013 49.4001 3.44189 50.0033 3.55765 50.5853C3.6734 51.1672 3.95912 51.7018 4.37868 52.1213C4.79824 52.5409 5.33279 52.8266 5.91473 52.9424C6.49667 53.0581 7.09987 52.9987 7.64805 52.7716C8.19623 52.5446 8.66477 52.1601 8.99441 51.6667C9.32405 51.1734 9.5 50.5933 9.5 50C9.50417 49.5554 9.40127 49.1164 9.2 48.72ZM6.5 51C6.23478 51 5.98043 50.8946 5.79289 50.7071C5.60536 50.5196 5.5 50.2652 5.5 50C5.5 49.7348 5.60536 49.4804 5.79289 49.2929C5.98043 49.1054 6.23478 49 6.5 49C6.74307 49.0003 6.9777 49.0892 7.16 49.25C7.26667 49.3437 7.35216 49.4591 7.41078 49.5884C7.46941 49.7177 7.49982 49.858 7.5 50C7.5 50.2652 7.39464 50.5196 7.20711 50.7071C7.01957 50.8946 6.76522 51 6.5 51Z" fill="#CBFB45"></path><g opacity="0.5"><path opacity="0.5" d="M7.91 49.59C7.7784 49.5908 7.64793 49.5655 7.5261 49.5158C7.40426 49.466 7.29344 49.3927 7.2 49.3C7.10628 49.2071 7.03188 49.0964 6.98111 48.9746C6.93034 48.8527 6.90421 48.722 6.90421 48.59C6.90421 48.458 6.93034 48.3273 6.98111 48.2054C7.03188 48.0836 7.10628 47.973 7.2 47.88L15.06 40C15.251 39.8091 15.51 39.7018 15.78 39.7018C16.0501 39.7018 16.309 39.8091 16.5 40C16.691 40.191 16.7982 40.45 16.7982 40.72C16.7982 40.9901 16.691 41.2491 16.5 41.44L8.62 49.3C8.52656 49.3927 8.41575 49.466 8.29391 49.5158C8.17207 49.5655 8.04161 49.5908 7.91 49.59Z" fill="#CBFB45"></path></g><g opacity="0.5"><path opacity="0.5" d="M15.09 17H8.5C8.23478 17 7.98043 16.8946 7.79289 16.7071C7.60536 16.5196 7.5 16.2652 7.5 16V5C7.5 4.73478 7.60536 4.48043 7.79289 4.29289C7.98043 4.10536 8.23478 4 8.5 4C8.76522 4 9.01957 4.10536 9.20711 4.29289C9.39464 4.48043 9.5 4.73478 9.5 5V15H15.09C15.3552 15 15.6096 15.1054 15.7971 15.2929C15.9846 15.4804 16.09 15.7348 16.09 16C16.09 16.2652 15.9846 16.5196 15.7971 16.7071C15.6096 16.8946 15.3552 17 15.09 17Z" fill="#CBFB45"></path></g><path d="M8.5 0C7.79646 0.00545837 7.11722 0.258013 6.58101 0.713515C6.0448 1.16902 5.68574 1.79849 5.5666 2.49189C5.44746 3.18529 5.57582 3.89851 5.92923 4.50687C6.28264 5.11523 6.83863 5.58002 7.5 5.82C8.1451 6.0598 8.8549 6.0598 9.5 5.82C10.1614 5.58002 10.7174 5.11523 11.0708 4.50687C11.4242 3.89851 11.5525 3.18529 11.4334 2.49189C11.3143 1.79849 10.9552 1.16902 10.419 0.713515C9.88279 0.258013 9.20354 0.00545837 8.5 0ZM8.5 4C8.30222 4 8.10888 3.94135 7.94443 3.83147C7.77998 3.72159 7.65181 3.56541 7.57612 3.38268C7.50043 3.19996 7.48063 2.99889 7.51922 2.80491C7.5578 2.61093 7.65304 2.43275 7.79289 2.29289C7.93275 2.15304 8.11093 2.0578 8.30491 2.01921C8.49889 1.98063 8.69996 2.00043 8.88268 2.07612C9.06541 2.15181 9.22159 2.27998 9.33147 2.44443C9.44135 2.60888 9.5 2.80222 9.5 3C9.5 3.26522 9.39464 3.51957 9.20711 3.70711C9.01957 3.89464 8.76522 4 8.5 4Z" fill="#CBFB45"></path><g opacity="0.5"><path opacity="0.5" d="M48.5 52C48.2348 52 47.9804 51.8946 47.7929 51.7071C47.6054 51.5196 47.5 51.2652 47.5 51V41H41.91C41.6448 41 41.3904 40.8946 41.2029 40.7071C41.0154 40.5196 40.91 40.2652 40.91 40C40.91 39.7348 41.0154 39.4804 41.2029 39.2929C41.3904 39.1054 41.6448 39 41.91 39H48.5C48.7652 39 49.0196 39.1054 49.2071 39.2929C49.3946 39.4804 49.5 39.7348 49.5 40V51C49.5 51.2652 49.3946 51.5196 49.2071 51.7071C49.0196 51.8946 48.7652 52 48.5 52Z" fill="#CBFB45"></path></g><path d="M49.5 50.18C48.8549 49.9402 48.1451 49.9402 47.5 50.18C46.8328 50.4159 46.2705 50.88 45.9124 51.4905C45.5543 52.1009 45.4235 52.8182 45.5432 53.5157C45.6629 54.2132 46.0253 54.8459 46.5663 55.3021C47.1074 55.7582 47.7923 56.0084 48.5 56.0084C49.2077 56.0084 49.8926 55.7582 50.4337 55.3021C50.9747 54.8459 51.3371 54.2132 51.4568 53.5157C51.5765 52.8182 51.4457 52.1009 51.0876 51.4905C50.7296 50.88 50.1672 50.4159 49.5 50.18ZM48.5 54C48.3022 54 48.1089 53.9413 47.9444 53.8314C47.78 53.7216 47.6518 53.5654 47.5761 53.3827C47.5004 53.1999 47.4806 52.9989 47.5192 52.8049C47.5578 52.6109 47.653 52.4327 47.7929 52.2929C47.9328 52.153 48.1109 52.0578 48.3049 52.0192C48.4989 51.9806 48.7 52.0004 48.8827 52.0761C49.0654 52.1518 49.2216 52.28 49.3315 52.4444C49.4414 52.6089 49.5 52.8022 49.5 53C49.5 53.2652 49.3946 53.5195 49.2071 53.7071C49.0196 53.8946 48.7652 54 48.5 54Z" fill="#CBFB45"></path><path d="M4.50001 35.18C4.18062 35.0589 3.84159 34.9978 3.50001 35C3.15843 34.9978 2.81939 35.0589 2.50001 35.18C1.83279 35.4159 1.27045 35.8801 0.912375 36.4905C0.554298 37.1009 0.423539 37.8182 0.543211 38.5157C0.662882 39.2132 1.02528 39.846 1.56635 40.3021C2.10741 40.7582 2.79232 41.0084 3.50001 41.0084C4.20769 41.0084 4.8926 40.7582 5.43367 40.3021C5.97474 39.846 6.33713 39.2132 6.4568 38.5157C6.57647 37.8182 6.44571 37.1009 6.08764 36.4905C5.72956 35.8801 5.16722 35.4159 4.50001 35.18ZM3.50001 39C3.30222 39 3.10889 38.9413 2.94444 38.8315C2.77999 38.7216 2.65181 38.5654 2.57613 38.3827C2.50044 38.2 2.48064 37.9989 2.51922 37.8049C2.55781 37.6109 2.65305 37.4327 2.7929 37.2929C2.93275 37.153 3.11093 37.0578 3.30492 37.0192C3.4989 36.9806 3.69996 37.0004 3.88269 37.0761C4.06542 37.1518 4.22159 37.28 4.33148 37.4444C4.44136 37.6089 4.50001 37.8022 4.50001 38C4.50001 38.2652 4.39465 38.5196 4.20711 38.7071C4.01958 38.8946 3.76522 39 3.50001 39Z" fill="#CBFB45"></path><g opacity="0.5"><path opacity="0.5" d="M3.5 37C3.23478 37 2.98043 36.8946 2.79289 36.7071C2.60536 36.5196 2.5 36.2652 2.5 36V33C2.50073 32.8413 2.5392 32.6852 2.61223 32.5443C2.68527 32.4035 2.79076 32.282 2.92 32.19L9.92 27.19C10.1353 27.0625 10.3906 27.0203 10.6354 27.0718C10.8803 27.1233 11.097 27.2648 11.2426 27.4682C11.3883 27.6717 11.4524 27.9223 11.4223 28.1708C11.3922 28.4192 11.2701 28.6472 11.08 28.81L4.5 33.51V36C4.5 36.2652 4.39464 36.5196 4.20711 36.7071C4.01957 36.8946 3.76522 37 3.5 37Z" fill="#CBFB45"></path></g><path d="M53.5 15C52.7964 15.0055 52.1172 15.258 51.581 15.7135C51.0448 16.169 50.6857 16.7985 50.5666 17.4919C50.4474 18.1853 50.5758 18.8985 50.9292 19.5069C51.2826 20.1152 51.8386 20.58 52.5 20.82C53.1451 21.0598 53.8549 21.0598 54.5 20.82C55.1614 20.58 55.7173 20.1152 56.0708 19.5069C56.4242 18.8985 56.5525 18.1853 56.4334 17.4919C56.3142 16.7985 55.9552 16.169 55.419 15.7135C54.8828 15.258 54.2035 15.0055 53.5 15ZM53.5 19C53.3022 19 53.1089 18.9414 52.9444 18.8315C52.78 18.7216 52.6518 18.5654 52.5761 18.3827C52.5004 18.2 52.4806 17.9989 52.5192 17.8049C52.5578 17.6109 52.653 17.4327 52.7929 17.2929C52.9327 17.153 53.1109 17.0578 53.3049 17.0192C53.4989 16.9806 53.6999 17.0004 53.8827 17.0761C54.0654 17.1518 54.2216 17.28 54.3315 17.4444C54.4413 17.6089 54.5 17.8022 54.5 18C54.5 18.2652 54.3946 18.5196 54.2071 18.7071C54.0196 18.8946 53.7652 19 53.5 19Z" fill="#CBFB45"></path><g opacity="0.5"><path opacity="0.5" d="M46.5 29C46.2892 28.9987 46.0843 28.9307 45.9144 28.806C45.7445 28.6812 45.6184 28.5059 45.5541 28.3052C45.4898 28.1045 45.4905 27.8885 45.5562 27.6883C45.622 27.488 45.7493 27.3136 45.92 27.19L52.5 22.49V20C52.5 19.7348 52.6054 19.4804 52.7929 19.2929C52.9804 19.1054 53.2348 19 53.5 19C53.7652 19 54.0196 19.1054 54.2071 19.2929C54.3947 19.4804 54.5 19.7348 54.5 20V23C54.4993 23.1587 54.4608 23.3148 54.3878 23.4557C54.3147 23.5965 54.2093 23.718 54.08 23.81L47.08 28.81C46.9112 28.9322 46.7084 28.9987 46.5 29Z" fill="#CBFB45"></path></g></svg>